<svg xmlns="http://www.w3.org/2000/svg" viewBox="0 0 512 512">
  <rect width="512" height="512" rx="100" fill="#0f172a"/>
  <rect width="512" height="512" rx="100" fill="url(#grad)"/>
  <defs>
    <linearGradient id="grad" x1="0%" y1="0%" x2="100%" y2="100%">
      <stop offset="0%" style="stop-color:#1e293b"/>
      <stop offset="100%" style="stop-color:#0f172a"/>
    </linearGradient>
  </defs>
  <!-- Wrench icon centered -->
  <g transform="translate(256,256)">
    <g transform="rotate(-45) translate(-100,-100)">
      <path d="M164.9 24.6c-7.7-18.6-28-28.5-47.4-23.2l43.3 43.3c4.7 4.7 4.7 12.3 0 17L142 79.5c-4.7 4.7-12.3 4.7-17 0L81.7 36.2C76.4 55.6 86.3 75.9 105 83.6l-85.6 85.6c-9.4 9.4-9.4 24.6 0 33.9l17 17c9.4 9.4 24.6 9.4 33.9 0l85.6-85.6c18.7 7.7 39 1.8 46.6-17.5z" fill="#f59e0b"/>
    </g>
  </g>
  <text x="256" y="420" font-family="Inter,Arial,sans-serif" font-size="80" font-weight="800" text-anchor="middle" fill="#f59e0b">Sesé</text>
</svg>
